<svg xmlns="http://www.w3.org/2000/svg" xmlns:xlink="http://www.w3.org/1999/xlink" fill="none" version="1.1" width="46" height="46" viewBox="-11 -11 46 46"><defs><clipPath id="master_svg0_179_2278"><rect x="0" y="0" width="24" height="24" rx="0"/></clipPath></defs><g clip-path="url(#master_svg0_179_2278)"><g><path d="M20,22L4,22C3.447715,22,3,21.5523,3,21L3,3C3,2.447715,3.447715,2,4,2L20,2C20.5523,2,21,2.447715,21,3L21,21C21,21.5523,20.5523,22,20,22ZM7,6L7,10L11,10L11,6L7,6ZM7,12L7,14L17,14L17,12L7,12ZM7,16L7,18L17,18L17,16L7,16ZM13,7L13,9L17,9L17,7L13,7Z" fill="#D8D8D8" fill-opacity="1"/></g></g></svg>