<svg xmlns="http://www.w3.org/2000/svg" xmlns:xlink="http://www.w3.org/1999/xlink" fill="none" version="1.1" width="46" height="46" viewBox="-11 -11 46 46"><defs><clipPath id="master_svg0_179_2274"><rect x="0" y="0" width="24" height="24" rx="0"/></clipPath></defs><g clip-path="url(#master_svg0_179_2274)"><g><path d="M17,3L21,3C21.5523,3,22,3.44772,22,4L22,20C22,20.5523,21.5523,21,21,21L3,21C2.447715,21,2,20.5523,2,20L2,4C2,3.44772,2.447715,3,3,3L7,3L7,1L9,1L9,3L15,3L15,1L17,1L17,3ZM4,9L4,19L20,19L20,9L4,9ZM6,11L8,11L8,13L6,13L6,11ZM6,15L8,15L8,17L6,17L6,15ZM10,11L18,11L18,13L10,13L10,11ZM10,15L15,15L15,17L10,17L10,15Z" fill="#D8D8D8" fill-opacity="1"/></g></g></svg>