<svg xmlns="http://www.w3.org/2000/svg" xmlns:xlink="http://www.w3.org/1999/xlink" fill="none" version="1.1" width="192.265625" height="70.578125" viewBox="0 0 192.265625 70.578125"><defs><filter id="master_svg0_23_769" filterUnits="objectBoundingBox" color-interpolation-filters="sRGB" x="-20" y="-20" width="209" height="114"><feFlood flood-opacity="0" result="BackgroundImageFix"/><feBlend mode="normal" in="SourceGraphic" in2="BackgroundImageFix" result="shape"/><feGaussianBlur stdDeviation="5" result="effect1_foregroundBlur"/></filter><linearGradient x1="17.02880885824561" y1="52.403196811676025" x2="163.37035846710205" y2="17.037353098392487" gradientUnits="userSpaceOnUse" id="master_svg1_23_779"><stop offset="0%" stop-color="#4C69E1" stop-opacity="1"/><stop offset="100.00003576278687%" stop-color="#424BF7" stop-opacity="0.7699999809265137"/></linearGradient><linearGradient x1="15.028808858245611" y1="50.403196811676025" x2="161.37035846710205" y2="15.037353098392487" gradientUnits="userSpaceOnUse" id="master_svg2_23_146"><stop offset="0%" stop-color="#4C69E1" stop-opacity="1"/><stop offset="100.00003576278687%" stop-color="#424BF7" stop-opacity="0.7699999809265137"/></linearGradient></defs><g style="mix-blend-mode:passthrough"><g style="mix-blend-mode:passthrough" filter="url(#master_svg0_23_769)"><path d="M17.875005,54.890625Q16.703125,54.890625,15.843745,54.046825Q15.000005,53.187525,15.000005,52.015625L15.000005,20.765625Q15.000005,19.593725,15.843745,18.734425Q16.703125,17.875025,17.875005,17.875025L19.531245,17.875025Q20.703125,17.875025,21.562525,18.734425Q22.421925,19.593725,22.421925,20.765625L22.421925,32.093725Q22.421925,32.421825,22.765625,32.421825L36.046925,32.421825Q36.375025,32.421825,36.375025,32.093725L36.375025,20.765625Q36.375025,19.593725,37.234325,18.734425Q38.093725,17.875025,39.265625,17.875025L40.875025,17.875025Q42.046925,17.875025,42.890625,18.734425Q43.750025,19.593725,43.750025,20.765625L43.750025,52.015625Q43.750025,53.187525,42.890625,54.046825Q42.046925,54.890625,40.875025,54.890625L39.265625,54.890625Q38.093725,54.890625,37.234325,54.046825Q36.375025,53.187525,36.375025,52.015625L36.375025,39.265625Q36.375025,38.875025,36.046925,38.875025L22.765625,38.875025Q22.421925,38.875025,22.421925,39.265625L22.421925,52.015625Q22.421925,53.187525,21.562525,54.046825Q20.703125,54.890625,19.531245,54.890625L17.875005,54.890625ZM66.562525,55.578125Q60.515625,55.578125,56.578125,51.625025Q52.656225,47.656225,52.656225,40.921825Q52.656225,37.656225,53.750025,34.828125Q54.843725,31.984425,56.671925,30.140625Q58.515625,28.281225,60.859325,27.234425Q63.203125,26.171825,65.687525,26.171825Q71.296925,26.171825,74.343725,29.890625Q77.406225,33.593725,77.406225,39.609425Q77.406225,39.843725,77.406225,40.093725Q77.359325,41.312525,76.406225,42.125025Q75.453125,42.921825,74.187525,42.921825L60.171925,42.921825Q59.781225,42.921825,59.875025,43.312525Q60.359325,46.546825,62.406225,48.250025Q64.468725,49.953125,67.546925,49.953125Q69.593725,49.953125,71.546925,49.171825Q72.140625,48.937525,72.718725,48.937525Q73.156225,48.937525,73.546925,49.031225Q74.625025,49.328125,75.109325,50.250025Q75.453125,50.890625,75.453125,51.578125Q75.453125,52.250025,75.109325,52.859425Q74.765625,53.468725,74.140625,53.765625Q70.421925,55.578125,66.562525,55.578125ZM59.734325,37.796825Q59.734325,38.093725,60.078125,38.093725L70.718725,38.093725Q71.109325,38.093725,71.109325,37.750025Q71.015625,34.968725,69.687525,33.437525Q68.375025,31.890625,65.781225,31.890625Q63.593725,31.890625,61.875025,33.406225Q59.734325,35.359425,59.734325,37.796825ZM92.296925,55.578125Q88.625025,55.578125,87.015625,53.375025Q85.406225,51.171825,85.406225,47.031225L85.406225,17.875025Q85.406225,16.656225,86.234325,15.828125Q87.062525,15.000025,88.296925,15.000025L89.796925,15.000025Q91.031225,15.000025,91.859325,15.828125Q92.687525,16.656225,92.687525,17.875025L92.687525,47.375025Q92.687525,48.937525,93.562525,49.421825Q93.609325,49.468725,94.000025,49.671825Q94.390625,49.859425,94.531225,49.968725Q94.687525,50.062525,94.953125,50.265625Q95.218725,50.453125,95.312525,50.671825Q95.421925,50.890625,95.468725,51.125025L95.656225,52.203125Q95.718725,52.500025,95.718725,52.796825Q95.718725,53.671825,95.218725,54.453125Q94.593725,55.421825,93.421925,55.531225Q92.875025,55.578125,92.296925,55.578125ZM110.296925,55.578125Q106.625025,55.578125,105.015625,53.375025Q103.406225,51.171825,103.406225,47.031225L103.406225,17.875025Q103.406225,16.656225,104.234325,15.828125Q105.062525,15.000025,106.296925,15.000025L107.796925,15.000025Q109.031225,15.000025,109.859325,15.828125Q110.687125,16.656225,110.687125,17.875025L110.687125,47.375025Q110.687125,48.937525,111.562125,49.421825Q111.609125,49.468725,112.000125,49.671825Q112.391125,49.859425,112.531125,49.968725Q112.687125,50.062525,112.953125,50.265625Q113.219125,50.453125,113.312125,50.671825Q113.422125,50.890625,113.469125,51.125025L113.656125,52.203125Q113.719125,52.500025,113.719125,52.796825Q113.719125,53.671825,113.219125,54.453125Q112.594125,55.421825,111.422125,55.531225Q110.875125,55.578125,110.296925,55.578125ZM138.172125,54.578125Q135.765125,55.578125,133.09412500000002,55.578125Q130.43712499999998,55.578125,128.015125,54.578125Q125.609125,53.578125,123.750125,51.750025Q121.891125,49.906225,120.765125,47.109425Q119.656125,44.296825,119.656125,40.921825Q119.656125,37.562525,120.765125,34.734425Q121.891125,31.890625,123.750125,30.046825Q125.609125,28.187525,128.015125,27.187525Q130.43712499999998,26.171825,133.09412500000002,26.171825Q135.765125,26.171825,138.172125,27.187525Q140.594125,28.187525,142.453125,30.046825Q144.312125,31.890625,145.437125,34.734425Q146.562125,37.562525,146.562125,40.921825Q146.562125,44.296825,145.437125,47.109425Q144.312125,49.906225,142.453125,51.750025Q140.594125,53.578125,138.172125,54.578125ZM128.734125,47.250025Q130.297125,49.562525,133.09412500000002,49.562525Q135.906125,49.562525,137.46912500000002,47.250025Q139.031125,44.921825,139.031125,40.921825Q139.031125,36.921825,137.46912500000002,34.562525Q135.906125,32.187525,133.09412500000002,32.187525Q130.297125,32.187525,128.734125,34.562525Q127.172125,36.921825,127.172125,40.921825Q127.172125,44.921825,128.734125,47.250025ZM170.031125,40.968725Q168.469125,40.968725,166.984125,40.296825Q165.500125,39.609425,164.547125,38.781225Q163.594125,37.953125,162.422125,37.265625Q161.250125,36.578125,160.219125,36.578125Q158.703125,36.578125,157.437125,37.953125Q156.750125,38.625025,155.828125,38.828125Q155.625125,38.875025,155.437125,38.875025Q154.750125,38.875025,154.109125,38.437525Q153.281125,37.796825,153.141125,36.828125Q153.094125,36.625025,153.094125,36.437525Q153.094125,35.656225,153.625125,35.015625Q156.656125,31.359425,160.359125,31.359425Q161.875125,31.359425,163.359125,32.046825Q164.859125,32.718725,165.812125,33.546825Q166.765125,34.375025,167.953125,35.062525Q169.156125,35.750025,170.125125,35.750025Q171.641125,35.750025,172.922125,34.437525Q173.594125,33.750025,174.531125,33.546825Q174.719125,33.500025,174.922125,33.500025Q175.594125,33.500025,176.234125,33.937525Q177.062125,34.578125,177.219125,35.546825Q177.265125,35.750025,177.265125,35.937525Q177.265125,36.718725,176.719125,37.359425Q173.703125,40.968725,170.031125,40.968725Z" fill="url(#master_svg1_23_779)" fill-opacity="0.699999988079071"/></g><g style="mix-blend-mode:passthrough"><path d="M15.875005,52.890625Q14.703125,52.890625,13.843745,52.046825Q13.000005,51.187525,13.000005,50.015625L13.000005,18.765625Q13.000005,17.593725,13.843745,16.734425Q14.703125,15.875025,15.875005,15.875025L17.531245,15.875025Q18.703125,15.875025,19.562525,16.734425Q20.421925,17.593725,20.421925,18.765625L20.421925,30.093725Q20.421925,30.421825,20.765625,30.421825L34.046925,30.421825Q34.375025,30.421825,34.375025,30.093725L34.375025,18.765625Q34.375025,17.593725,35.234325,16.734425Q36.093725,15.875025,37.265625,15.875025L38.875025,15.875025Q40.046925,15.875025,40.890625,16.734425Q41.750025,17.593725,41.750025,18.765625L41.750025,50.015625Q41.750025,51.187525,40.890625,52.046825Q40.046925,52.890625,38.875025,52.890625L37.265625,52.890625Q36.093725,52.890625,35.234325,52.046825Q34.375025,51.187525,34.375025,50.015625L34.375025,37.265625Q34.375025,36.875025,34.046925,36.875025L20.765625,36.875025Q20.421925,36.875025,20.421925,37.265625L20.421925,50.015625Q20.421925,51.187525,19.562525,52.046825Q18.703125,52.890625,17.531245,52.890625L15.875005,52.890625ZM64.562525,53.578125Q58.515625,53.578125,54.578125,49.625025Q50.656225,45.656225,50.656225,38.921825Q50.656225,35.656225,51.750025,32.828125Q52.843725,29.984425,54.671925,28.140625Q56.515625,26.281225,58.859325,25.234425Q61.203125,24.171825,63.687525,24.171825Q69.296925,24.171825,72.343725,27.890625Q75.406225,31.593725,75.406225,37.609425Q75.406225,37.843725,75.406225,38.093725Q75.359325,39.312525,74.406225,40.125025Q73.453125,40.921825,72.187525,40.921825L58.171925,40.921825Q57.781225,40.921825,57.875025,41.312525Q58.359325,44.546825,60.406225,46.250025Q62.468725,47.953125,65.546925,47.953125Q67.593725,47.953125,69.546925,47.171825Q70.140625,46.937525,70.718725,46.937525Q71.156225,46.937525,71.546925,47.031225Q72.625025,47.328125,73.109325,48.250025Q73.453125,48.890625,73.453125,49.578125Q73.453125,50.250025,73.109325,50.859425Q72.765625,51.468725,72.140625,51.765625Q68.421925,53.578125,64.562525,53.578125ZM57.734325,35.796825Q57.734325,36.093725,58.078125,36.093725L68.718725,36.093725Q69.109325,36.093725,69.109325,35.750025Q69.015625,32.968725,67.687525,31.437525Q66.375025,29.890625,63.781225,29.890625Q61.593725,29.890625,59.875025,31.406225Q57.734325,33.359425,57.734325,35.796825ZM90.296925,53.578125Q86.625025,53.578125,85.015625,51.375025Q83.406225,49.171825,83.406225,45.031225L83.406225,15.875025Q83.406225,14.656225,84.234325,13.828125Q85.062525,13.000025,86.296925,13.000025L87.796925,13.000025Q89.031225,13.000025,89.859325,13.828125Q90.687525,14.656225,90.687525,15.875025L90.687525,45.375025Q90.687525,46.937525,91.562525,47.421825Q91.609325,47.468725,92.000025,47.671825Q92.390625,47.859425,92.531225,47.968725Q92.687525,48.062525,92.953125,48.265625Q93.218725,48.453125,93.312525,48.671825Q93.421925,48.890625,93.468725,49.125025L93.656225,50.203125Q93.718725,50.500025,93.718725,50.796825Q93.718725,51.671825,93.218725,52.453125Q92.593725,53.421825,91.421925,53.531225Q90.875025,53.578125,90.296925,53.578125ZM108.296925,53.578125Q104.625025,53.578125,103.015625,51.375025Q101.406225,49.171825,101.406225,45.031225L101.406225,15.875025Q101.406225,14.656225,102.234325,13.828125Q103.062525,13.000025,104.296925,13.000025L105.796925,13.000025Q107.031225,13.000025,107.859325,13.828125Q108.687125,14.656225,108.687125,15.875025L108.687125,45.375025Q108.687125,46.937525,109.562125,47.421825Q109.609125,47.468725,110.000125,47.671825Q110.391125,47.859425,110.531125,47.968725Q110.687125,48.062525,110.953125,48.265625Q111.219125,48.453125,111.312125,48.671825Q111.422125,48.890625,111.469125,49.125025L111.656125,50.203125Q111.719125,50.500025,111.719125,50.796825Q111.719125,51.671825,111.219125,52.453125Q110.594125,53.421825,109.422125,53.531225Q108.875125,53.578125,108.296925,53.578125ZM136.172125,52.578125Q133.765125,53.578125,131.09412500000002,53.578125Q128.43712499999998,53.578125,126.015125,52.578125Q123.609125,51.578125,121.750125,49.750025Q119.891125,47.906225,118.765125,45.109425Q117.656125,42.296825,117.656125,38.921825Q117.656125,35.562525,118.765125,32.734425Q119.891125,29.890625,121.750125,28.046825Q123.609125,26.187525,126.015125,25.187525Q128.43712499999998,24.171825,131.09412500000002,24.171825Q133.765125,24.171825,136.172125,25.187525Q138.594125,26.187525,140.453125,28.046825Q142.312125,29.890625,143.437125,32.734425Q144.562125,35.562525,144.562125,38.921825Q144.562125,42.296825,143.437125,45.109425Q142.312125,47.906225,140.453125,49.750025Q138.594125,51.578125,136.172125,52.578125ZM126.734125,45.250025Q128.297125,47.562525,131.09412500000002,47.562525Q133.906125,47.562525,135.46912500000002,45.250025Q137.031125,42.921825,137.031125,38.921825Q137.031125,34.921825,135.46912500000002,32.562525Q133.906125,30.187525,131.09412500000002,30.187525Q128.297125,30.187525,126.734125,32.562525Q125.172125,34.921825,125.172125,38.921825Q125.172125,42.921825,126.734125,45.250025ZM168.031125,38.968725Q166.469125,38.968725,164.984125,38.296825Q163.500125,37.609425,162.547125,36.781225Q161.594125,35.953125,160.422125,35.265625Q159.250125,34.578125,158.219125,34.578125Q156.703125,34.578125,155.437125,35.953125Q154.750125,36.625025,153.828125,36.828125Q153.625125,36.875025,153.437125,36.875025Q152.750125,36.875025,152.109125,36.437525Q151.281125,35.796825,151.141125,34.828125Q151.094125,34.625025,151.094125,34.437525Q151.094125,33.656225,151.625125,33.015625Q154.656125,29.359425,158.359125,29.359425Q159.875125,29.359425,161.359125,30.046825Q162.859125,30.718725,163.812125,31.546825Q164.765125,32.375025,165.953125,33.062525Q167.156125,33.750025,168.125125,33.750025Q169.641125,33.750025,170.922125,32.437525Q171.594125,31.750025,172.531125,31.546825Q172.719125,31.500025,172.922125,31.500025Q173.594125,31.500025,174.234125,31.937525Q175.062125,32.578125,175.219125,33.546825Q175.265125,33.750025,175.265125,33.937525Q175.265125,34.718725,174.719125,35.359425Q171.703125,38.968725,168.031125,38.968725Z" fill="url(#master_svg2_23_146)" fill-opacity="1"/></g></g></svg>