<svg xmlns="http://www.w3.org/2000/svg" xmlns:xlink="http://www.w3.org/1999/xlink" fill="none" version="1.1" width="46" height="46" viewBox="-11 -11 46 46"><defs><clipPath id="master_svg0_179_2270"><rect x="0" y="0" width="24" height="24" rx="0"/></clipPath></defs><g clip-path="url(#master_svg0_179_2270)"><g><path d="M12,6.99999959564209C16.418300000000002,6.99999959564209,20,10.58171959564209,20,14.99999959564209C20,19.41829959564209,16.418300000000002,22.99999959564209,12,22.99999959564209C7.58172,22.99999959564209,4,19.41829959564209,4,14.99999959564209C4,10.58171959564209,7.58172,6.99999959564209,12,6.99999959564209ZM12,10.49999959564209L10.677,13.179999595642089L7.720000000000001,13.60999959564209L9.86,15.69499959564209L9.355,18.64099959564209L12,17.249999595642088L14.645,18.639999595642088L14.14,15.69499959564209L16.28,13.60899959564209L13.323,13.17899959564209L12,10.49999959564209ZM13,1.9989995956420898L18,1.9999999956420897L18,4.999999595642089L16.637,6.13799959564209C15.5059,5.54457959564209,14.2711,5.174829595642089,13,5.04899959564209L13,1.9999999956420897L13,1.9989995956420898ZM11,1.9989995956420898L11,5.04899959564209C9.72935,5.17464959564209,8.49482,5.54404959564209,7.364,6.13699959564209L6,4.999999595642089L6,1.9999999956420897L11,1.9989995956420898Z" fill="#D8D8D8" fill-opacity="1"/></g></g></svg>