<svg xmlns="http://www.w3.org/2000/svg" xmlns:xlink="http://www.w3.org/1999/xlink" fill="none" version="1.1" width="46" height="46" viewBox="-11 -11 46 46"><defs><clipPath id="master_svg0_179_2282"><rect x="0" y="0" width="24" height="24" rx="0"/></clipPath></defs><g clip-path="url(#master_svg0_179_2282)"><g><path d="M8,18L18.237,18L20,19.385L20,9L21,9C21.5523,9,22,9.44771,22,10L22,23.5L17.545,20L9,20C8.44771,20,8,19.5523,8,19L8,18ZM5.455,16L1,19.5L1,4C1,3.447715,1.447715,3,2,3L17,3C17.5523,3,18,3.447715,18,4L18,16L5.455,16Z" fill="#D8D8D8" fill-opacity="1"/></g></g></svg>