<svg xmlns="http://www.w3.org/2000/svg" xmlns:xlink="http://www.w3.org/1999/xlink" fill="none" version="1.1" width="64" height="64" viewBox="-8.02783203125 -8 64 64"><defs><clipPath id="master_svg0_23_020"><rect x="0" y="0" width="49.33000564575195" height="49.33000946044922" rx="24.165002822875977"/></clipPath></defs><g clip-path="url(#master_svg0_23_020)"><g><path d="M33.627294140625,27.14721298828125C34.312394140625,27.13821298828125,34.865594140625,26.58501298828125,34.874594140625,25.90001298828125C34.874594140625,25.20831298828125,34.320394140625,24.652812988281248,33.627294140625,24.652812988281248C32.934294140625,24.652812988281248,32.380094140625005,25.20831298828125,32.380094140625005,25.90001298828125C32.380094140625005,26.59441298828125,32.935694140625,27.14721298828125,33.627294140625,27.14721298828125ZM27.481494140625,27.14721298828125C28.166594140625,27.13821298828125,28.719794140625,26.58501298828125,28.728694140625,25.90001298828125C28.728694140625,25.20831298828125,28.173194140625,24.652812988281248,27.481494140625,24.652812988281248C26.787094140625,24.652812988281248,26.234294140625,25.20831298828125,26.234294140625,25.90001298828125C26.234294140625,26.59441298828125,26.788494140625,27.14721298828125,27.481494140625,27.14721298828125ZM36.602294140625,34.14861298828125Q36.323294140624995,34.45611298828125,36.363494140625,34.661112988281246C36.363494140625,34.72781298828125,36.363494140625,34.79581298828125,36.398194140625,34.86531298828125C36.534294140625,35.44441298828125,36.806494140625,36.36661298828125,36.806494140625,36.40141298828125C36.806494140625,36.50281298828125,36.841194140625,36.57081298828125,36.841194140625,36.64031298828125C36.841194140625,36.809612988281245,36.703594140625,36.946612988281245,36.534294140625,36.94581298828125C36.464794140625,36.94581298828125,36.431494140625,36.91251298828125,36.363494140625,36.87911298828125L34.350994140625005,35.718012988281245C34.203994140625,35.637112988281245,34.040694140625,35.59061298828125,33.873194140625,35.581912988281246C33.771794140625005,35.581912988281246,33.668994140625,35.581912988281246,33.600994140625005,35.61531298828125C32.645394140625,35.88891298828125,31.656494140625,36.02501298828125,30.599594140625,36.02501298828125C25.516194140625,36.02501298828125,21.423194140625,32.61251298828125,21.423194140625,28.37921298828125C21.423194140625,24.14721298828125,25.516194140625,20.73331298828125,30.599594140625,20.73331298828125C35.681494140625,20.73331298828125,39.774594140625,24.14721298828125,39.774594140625,28.37921298828125C39.774594140625,30.66671298828125,38.546794140624996,32.74861298828125,36.602294140625,34.14861298828125L36.602294140625,34.14861298828125ZM30.987094140625,19.35137298828125Q30.727794140625,19.34614298828125,30.598194140625,19.34581298828125C24.800994140625,19.34581298828125,20.034294140625,23.31801298828125,20.034294140625,28.38051298828125C20.034294140625,29.15001298828125,20.145394140625,29.89441298828125,20.350994140624998,30.60281298828125L20.227294140625,30.60281298828125C19.013804140625,30.59051298828125,17.807154140625002,30.41871298828125,16.638444140625,30.09161298828125C16.535664140625002,30.05691298828125,16.432894140625,30.05691298828125,16.330114140625,30.05691298828125C16.124854140625,30.06131298828125,15.924464140625,30.12021298828125,15.749554140625001,30.22781298828125L13.321774140625,31.62361298828125C13.252334140624999,31.65831298828125,13.184274140625,31.69301298828125,13.116214140625,31.69301298828125C12.910054140625,31.69081298828125,12.743474140625,31.52421298828125,12.741214140625,31.31801298828125C12.741214140625,31.21531298828125,12.774554140625,31.14721298828125,12.809274140625,31.04441298828125C12.842604140625,31.01111298828125,13.150944140625,29.88611298828125,13.321774140625,29.20551298828125C13.321774140625,29.13611298828125,13.355104140625,29.03471298828125,13.355104140625,28.96661298828125C13.354344140624999,28.72531298828125,13.240784140625,28.49821298828125,13.048164140625,28.35271298828125C10.688444140625,26.681912988281248,9.218994140625,24.19581298828125,9.218994140625,21.434712988281248C9.218994140625,16.36109298828125,14.177324140625,12.27081298828125,20.260694140625,12.27081298828125C25.489794140625,12.27081298828125,29.885694140625,15.28331298828125,30.987094140625,19.35137298828125L30.987094140625,19.35137298828125ZM23.828694140625,19.93331298828125C24.624594140625,19.93331298828125,25.253694140625,19.27082298828125,25.253694140625,18.50831298828125C25.253694140625,17.712482988281252,24.624594140625,17.08332298828125,23.828694140625,17.08332298828125C23.032894140625,17.08332298828125,22.403694140625,17.712482988281252,22.403694140625,18.50831298828125C22.403694140625,19.30415298828125,23.032894140625,19.93331298828125,23.828694140625,19.93331298828125ZM16.523164140625,19.93331298828125C17.319004140624997,19.93331298828125,17.949554140625,19.27082298828125,17.949554140625,18.50831298828125C17.949554140625,17.712482988281252,17.319004140624997,17.08332298828125,16.523164140625,17.08332298828125C15.728724140625001,17.08332298828125,15.098164140625,17.712482988281252,15.098164140625,18.50831298828125C15.098164140625,19.30415298828125,15.728724140625001,19.93331298828125,16.523164140625,19.93331298828125Z" fill="#D8D8D8" fill-opacity="1"/><path d="M33.627294140625,27.14721298828125C34.312394140625,27.13821298828125,34.865594140625,26.58501298828125,34.874594140625,25.90001298828125C34.874594140625,25.20831298828125,34.320394140625,24.652812988281248,33.627294140625,24.652812988281248C32.934294140625,24.652812988281248,32.380094140625005,25.20831298828125,32.380094140625005,25.90001298828125C32.380094140625005,26.59441298828125,32.935694140625,27.14721298828125,33.627294140625,27.14721298828125ZM27.481494140625,27.14721298828125C28.166594140625,27.13821298828125,28.719794140625,26.58501298828125,28.728694140625,25.90001298828125C28.728694140625,25.20831298828125,28.173194140625,24.652812988281248,27.481494140625,24.652812988281248C26.787094140625,24.652812988281248,26.234294140625,25.20831298828125,26.234294140625,25.90001298828125C26.234294140625,26.59441298828125,26.788494140625,27.14721298828125,27.481494140625,27.14721298828125ZM36.602294140625,34.14861298828125Q36.323294140624995,34.45611298828125,36.363494140625,34.661112988281246C36.363494140625,34.72781298828125,36.363494140625,34.79581298828125,36.398194140625,34.86531298828125C36.534294140625,35.44441298828125,36.806494140625,36.36661298828125,36.806494140625,36.40141298828125C36.806494140625,36.50281298828125,36.841194140625,36.57081298828125,36.841194140625,36.64031298828125C36.841194140625,36.809612988281245,36.703594140625,36.946612988281245,36.534294140625,36.94581298828125C36.464794140625,36.94581298828125,36.431494140625,36.91251298828125,36.363494140625,36.87911298828125L34.350994140625005,35.718012988281245C34.203994140625,35.637112988281245,34.040694140625,35.59061298828125,33.873194140625,35.581912988281246C33.771794140625005,35.581912988281246,33.668994140625,35.581912988281246,33.600994140625005,35.61531298828125C32.645394140625,35.88891298828125,31.656494140625,36.02501298828125,30.599594140625,36.02501298828125C25.516194140625,36.02501298828125,21.423194140625,32.61251298828125,21.423194140625,28.37921298828125C21.423194140625,24.14721298828125,25.516194140625,20.73331298828125,30.599594140625,20.73331298828125C35.681494140625,20.73331298828125,39.774594140625,24.14721298828125,39.774594140625,28.37921298828125C39.774594140625,30.66671298828125,38.546794140624996,32.74861298828125,36.602294140625,34.14861298828125L36.602294140625,34.14861298828125ZM30.987094140625,19.35137298828125Q30.727794140625,19.34614298828125,30.598194140625,19.34581298828125C24.800994140625,19.34581298828125,20.034294140625,23.31801298828125,20.034294140625,28.38051298828125C20.034294140625,29.15001298828125,20.145394140625,29.89441298828125,20.350994140624998,30.60281298828125L20.227294140625,30.60281298828125C19.013804140625,30.59051298828125,17.807154140625002,30.41871298828125,16.638444140625,30.09161298828125C16.535664140625002,30.05691298828125,16.432894140625,30.05691298828125,16.330114140625,30.05691298828125C16.124854140625,30.06131298828125,15.924464140625,30.12021298828125,15.749554140625001,30.22781298828125L13.321774140625,31.62361298828125C13.252334140624999,31.65831298828125,13.184274140625,31.69301298828125,13.116214140625,31.69301298828125C12.910054140625,31.69081298828125,12.743474140625,31.52421298828125,12.741214140625,31.31801298828125C12.741214140625,31.21531298828125,12.774554140625,31.14721298828125,12.809274140625,31.04441298828125C12.842604140625,31.01111298828125,13.150944140625,29.88611298828125,13.321774140625,29.20551298828125C13.321774140625,29.13611298828125,13.355104140625,29.03471298828125,13.355104140625,28.96661298828125C13.354344140624999,28.72531298828125,13.240784140625,28.49821298828125,13.048164140625,28.35271298828125C10.688444140625,26.681912988281248,9.218994140625,24.19581298828125,9.218994140625,21.434712988281248C9.218994140625,16.36109298828125,14.177324140625,12.27081298828125,20.260694140625,12.27081298828125C25.489794140625,12.27081298828125,29.885694140625,15.28331298828125,30.987094140625,19.35137298828125L30.987094140625,19.35137298828125ZM23.828694140625,19.93331298828125C24.624594140625,19.93331298828125,25.253694140625,19.27082298828125,25.253694140625,18.50831298828125C25.253694140625,17.712482988281252,24.624594140625,17.08332298828125,23.828694140625,17.08332298828125C23.032894140625,17.08332298828125,22.403694140625,17.712482988281252,22.403694140625,18.50831298828125C22.403694140625,19.30415298828125,23.032894140625,19.93331298828125,23.828694140625,19.93331298828125ZM16.523164140625,19.93331298828125C17.319004140624997,19.93331298828125,17.949554140625,19.27082298828125,17.949554140625,18.50831298828125C17.949554140625,17.712482988281252,17.319004140624997,17.08332298828125,16.523164140625,17.08332298828125C15.728724140625001,17.08332298828125,15.098164140625,17.712482988281252,15.098164140625,18.50831298828125C15.098164140625,19.30415298828125,15.728724140625001,19.93331298828125,16.523164140625,19.93331298828125Z" fill="#00AF34" fill-opacity="1"/></g><rect x="0.5" y="0.5" width="48.33000564575195" height="48.33000946044922" rx="24.165002822875977" fill-opacity="0" stroke-opacity="0.20000000298023224" stroke="#DBDBDB" fill="none" stroke-width="1"/></g></svg>